<svg xmlns:dc="http://purl.org/dc/elements/1.1/" xmlns:cc="http://creativecommons.org/ns#" xmlns:rdf="http://www.w3.org/1999/02/22-rdf-syntax-ns#" xmlns="http://www.w3.org/2000/svg" width="67.485" height="70">
    <metadata>
        <rdf:RDF>
            <cc:Work>
                <dc:subject>
                    Code
                </dc:subject>
                <dc:identifier>
                    file-black
                </dc:identifier>
                <dc:title>
                    File (Black)
                </dc:title>
                <dc:format>
                    image/svg+xml
                </dc:format>
                <dc:publisher>
                    Amido Limited
                </dc:publisher>
                <dc:creator>
                    Richard Slater
                </dc:creator>
                <dc:type rdf:resource="http://purl.org/dc/dcmitype/StillImage"/>
            </cc:Work>
        </rdf:RDF>
    </metadata>
    <path d="m -198.16589,536.64138 c -3.17264,-0.83123 -5.72847,-3.33808 -6.6453,-6.51797 l -0.31664,-1.0982 0,-27.04305 c 0,-22.20209 0.0331,-27.17821 0.18483,-27.79807 0.10166,-0.41525 0.46444,-1.34186 0.80619,-2.05911 0.53117,-1.11484 0.79324,-1.47372 1.80565,-2.47272 1.3546,-1.33668 2.55993,-2.0244 4.32924,-2.47015 1.06307,-0.26783 1.55942,-0.27346 23.67983,-0.26872 l 22.594,0.005 7.04281,6.96184 7.04279,6.96183 -0.0418,24.22894 -0.0418,24.22893 -0.32451,0.96092 c -1.11815,3.31113 -3.48789,5.56775 -6.71306,6.39261 -1.0071,0.25758 -1.7749,0.26498 -26.71957,0.25764 -24.81831,-0.007 -25.71633,-0.0164 -26.68265,-0.26955 z m 41.97638,-22.37316 0,-2.88277 -15.58064,0 -15.58065,0 0,2.88277 0,2.88276 15.58065,0 15.58064,0 0,-2.88276 z m 0,-10.98196 0,-2.88276 -15.58064,0 -15.58065,0 0,2.88276 0,2.88277 15.58065,0 15.58064,0 0,-2.88277 z m 0,-11.11922 0,-2.88276 -15.58064,0 -15.58065,0 0,2.88276 0,2.88276 15.58065,0 15.58064,0 0,-2.88276 z m 8.3051,-14.82564 c -3.69897,-3.69954 -6.74106,-6.72644 -6.76023,-6.72644 -0.0192,0 -0.0349,3.0269 -0.0349,6.72644 l 0,6.72645 6.76024,0 6.76024,0 -6.7254,-6.72645 z" fill="#00bcf2" transform="translate(205.128 -466.913)"/>
</svg>
